<svg xmlns="http://www.w3.org/2000/svg" viewBox="0 0 520 780" width="520" height="780">
<defs>
  <!-- Background -->
  <radialGradient id="bgGrad" cx="50%" cy="35%" r="70%">
    <stop offset="0%" stop-color="#1e3a6e"/>
    <stop offset="100%" stop-color="#080818"/>
  </radialGradient>

  <!-- Skin -->
  <radialGradient id="skinFace" cx="42%" cy="38%" r="65%">
    <stop offset="0%" stop-color="#C4956A"/>
    <stop offset="60%" stop-color="#A67448"/>
    <stop offset="100%" stop-color="#7A4F2A"/>
  </radialGradient>
  <radialGradient id="skinBody" cx="40%" cy="30%" r="70%">
    <stop offset="0%" stop-color="#B8854A"/>
    <stop offset="100%" stop-color="#7A4F2A"/>
  </radialGradient>

  <!-- Hair -->
  <linearGradient id="hairMain" x1="20%" y1="0%" x2="80%" y2="100%">
    <stop offset="0%" stop-color="#FFFFFF"/>
    <stop offset="40%" stop-color="#EAEAf8"/>
    <stop offset="100%" stop-color="#B8B8D8"/>
  </linearGradient>
  <linearGradient id="hairSide" x1="0%" y1="0%" x2="100%" y2="100%">
    <stop offset="0%" stop-color="#F0F0FF"/>
    <stop offset="100%" stop-color="#A0A0C8"/>
  </linearGradient>

  <!-- Eyes -->
  <radialGradient id="irisL" cx="38%" cy="32%" r="65%">
    <stop offset="0%" stop-color="#A8DFFF"/>
    <stop offset="35%" stop-color="#3BA8FF"/>
    <stop offset="75%" stop-color="#1870D0"/>
    <stop offset="100%" stop-color="#0A3A80"/>
  </radialGradient>
  <radialGradient id="irisR" cx="38%" cy="32%" r="65%">
    <stop offset="0%" stop-color="#A8DFFF"/>
    <stop offset="35%" stop-color="#3BA8FF"/>
    <stop offset="75%" stop-color="#1870D0"/>
    <stop offset="100%" stop-color="#0A3A80"/>
  </radialGradient>

  <!-- Top -->
  <linearGradient id="topGrad" x1="0%" y1="0%" x2="100%" y2="100%">
    <stop offset="0%" stop-color="#FFFFFF"/>
    <stop offset="100%" stop-color="#D8D8E8"/>
  </linearGradient>

  <!-- Shorts -->
  <linearGradient id="shortGrad" x1="0%" y1="0%" x2="60%" y2="100%">
    <stop offset="0%" stop-color="#282848"/>
    <stop offset="100%" stop-color="#0E0E1E"/>
  </linearGradient>

  <!-- Glow filter -->
  <filter id="glow">
    <feGaussianBlur stdDeviation="3" result="blur"/>
    <feMerge><feMergeNode in="blur"/><feMergeNode in="SourceGraphic"/></feMerge>
  </filter>
  <filter id="softGlow">
    <feGaussianBlur stdDeviation="6" result="blur"/>
    <feMerge><feMergeNode in="blur"/><feMergeNode in="SourceGraphic"/></feMerge>
  </filter>
  <filter id="hairShine">
    <feGaussianBlur stdDeviation="2" result="blur"/>
    <feMerge><feMergeNode in="blur"/><feMergeNode in="SourceGraphic"/></feMerge>
  </filter>

  <!-- Clip for eyes -->
  <clipPath id="eyeClipL">
    <ellipse cx="196" cy="162" rx="30" ry="24"/>
  </clipPath>
  <clipPath id="eyeClipR">
    <ellipse cx="324" cy="162" rx="30" ry="24"/>
  </clipPath>
</defs>

<!-- ═══════ BACKGROUND ═══════ -->
<rect width="520" height="780" fill="url(#bgGrad)"/>
<!-- Soft character glow -->
<ellipse cx="260" cy="400" rx="160" ry="300" fill="#3B82F6" opacity="0.06"/>
<ellipse cx="260" cy="200" rx="120" ry="180" fill="#60A5FA" opacity="0.06"/>

<!-- ═══════ BACK HAIR ═══════ -->
<!-- Long flowing back hair - left stream -->
<path d="M 178 120
         C 148 140 118 185 110 240
         C 100 300 108 370 118 430
         C 126 478 132 520 125 560
         C 118 590 110 610 108 630
         C 115 618 122 598 126 572
         C 132 540 128 498 120 450
         C 110 390 102 318 114 255
         C 124 195 152 148 178 120 Z"
  fill="url(#hairSide)" opacity="0.92"/>

<!-- Long flowing back hair - right stream -->
<path d="M 342 120
         C 372 140 402 185 410 240
         C 420 300 412 370 402 430
         C 394 478 388 520 395 560
         C 402 590 410 610 412 630
         C 405 618 398 598 394 572
         C 388 540 392 498 400 450
         C 410 390 418 318 406 255
         C 396 195 368 148 342 120 Z"
  fill="url(#hairSide)" opacity="0.92"/>

<!-- Center back hair volume -->
<path d="M 210 68
         C 200 90 188 120 185 155
         C 182 190 190 240 200 300
         C 210 360 215 420 210 480
         C 205 530 198 570 195 600
         C 205 610 220 618 240 620
         C 235 588 232 548 235 505
         C 238 460 248 400 252 340
         C 256 280 258 220 252 165
         C 248 125 240 95 235 72
         C 228 70 220 68 210 68 Z"
  fill="url(#hairMain)" opacity="0.88"/>
<path d="M 310 68
         C 320 90 332 120 335 155
         C 338 190 330 240 320 300
         C 310 360 305 420 310 480
         C 315 530 322 570 325 600
         C 315 610 300 618 280 620
         C 285 588 288 548 285 505
         C 282 460 272 400 268 340
         C 264 280 262 220 268 165
         C 272 125 280 95 285 72
         C 292 70 300 68 310 68 Z"
  fill="url(#hairMain)" opacity="0.88"/>

<!-- ═══════ BODY ═══════ -->
<!-- Left arm -->
<path d="M 152 318
         C 128 325 108 345 100 378
         C 94 405 100 432 112 452
         C 120 464 130 470 140 468
         C 132 452 126 430 128 405
         C 130 383 140 358 156 335 Z"
  fill="url(#skinBody)"/>
<!-- Left hand -->
<ellipse cx="128" cy="470" rx="18" ry="14" fill="#B07840" transform="rotate(-10 128 470)"/>
<!-- Fingers left -->
<path d="M 112 462 C 106 454 104 448 108 444" stroke="#8A5828" stroke-width="3" fill="none" stroke-linecap="round"/>
<path d="M 116 466 C 109 460 108 452 112 447" stroke="#8A5828" stroke-width="3" fill="none" stroke-linecap="round"/>
<path d="M 120 469 C 114 464 114 456 118 451" stroke="#8A5828" stroke-width="3" fill="none" stroke-linecap="round"/>

<!-- Right arm - slightly raised, waving -->
<path d="M 368 318
         C 390 308 415 312 428 338
         C 440 360 438 390 430 418
         C 424 438 414 450 403 452
         C 412 436 418 412 416 388
         C 414 365 408 338 390 322 Z"
  fill="url(#skinBody)"/>
<!-- Right forearm raised -->
<path d="M 430 418
         C 440 400 448 378 445 355
         C 442 335 432 318 418 308"
  stroke="url(#skinBody)" stroke-width="28" fill="none" stroke-linecap="round"/>
<!-- Right hand waving -->
<ellipse cx="450" cy="340" rx="22" ry="16" fill="#C4956A" transform="rotate(-30 450 340)"/>
<!-- Fingers right (waving) -->
<path d="M 458 328 C 465 318 468 310 464 304" stroke="#A07040" stroke-width="3.5" fill="none" stroke-linecap="round"/>
<path d="M 452 324 C 458 313 460 304 456 297" stroke="#A07040" stroke-width="3.5" fill="none" stroke-linecap="round"/>
<path d="M 445 322 C 450 311 450 302 446 296" stroke="#A07040" stroke-width="3.5" fill="none" stroke-linecap="round"/>
<path d="M 438 324 C 442 314 441 306 437 301" stroke="#A07040" stroke-width="3.5" fill="none" stroke-linecap="round"/>

<!-- Torso / Crop top -->
<path d="M 158 312
         C 138 322 128 345 126 375
         C 124 405 130 432 140 450
         C 168 460 210 466 260 466
         C 310 466 352 460 380 450
         C 390 432 396 405 394 375
         C 392 345 382 322 362 312
         C 338 306 300 300 260 300
         C 220 300 182 306 158 312 Z"
  fill="url(#topGrad)"/>

<!-- Crop top collar / V-neck -->
<path d="M 220 302 C 235 288 260 283 260 283 C 260 283 285 288 300 302
         C 285 296 268 292 260 292 C 252 292 235 296 220 302 Z"
  fill="#EBEBEB"/>

<!-- Ruffle bottom of top -->
<path d="M 126 430
         C 140 448 168 458 200 462
         C 225 465 248 466 260 466
         C 272 466 295 465 320 462
         C 352 458 380 448 394 430
         C 385 448 375 460 355 468
         C 330 476 295 480 260 480
         C 225 480 190 476 165 468
         C 145 460 135 448 126 430 Z"
  fill="#DCDCEC"/>
<!-- Second ruffle layer -->
<path d="M 130 445
         C 145 460 172 470 205 474
         C 228 477 248 478 260 478
         C 272 478 292 477 315 474
         C 348 470 375 460 390 445
         C 382 462 372 474 350 482
         C 325 490 292 494 260 494
         C 228 494 195 490 170 482
         C 148 474 138 462 130 445 Z"
  fill="#D0D0E0"/>

<!-- Neck -->
<path d="M 238 272 C 232 280 230 298 230 312 L 290 312 C 290 298 288 280 282 272 Z"
  fill="url(#skinFace)"/>

<!-- Collar bone shadow -->
<path d="M 210 312 C 228 308 248 306 260 306 C 272 306 292 308 310 312"
  stroke="#7A5030" stroke-width="1.5" fill="none" opacity="0.4"/>

<!-- Shorts -->
<path d="M 140 466
         C 128 478 122 505 124 535
         C 126 562 135 582 145 595
         C 175 588 215 582 260 582
         C 305 582 345 588 375 595
         C 385 582 394 562 396 535
         C 398 505 392 478 380 466
         C 352 476 308 482 260 482
         C 212 482 168 476 140 466 Z"
  fill="url(#shortGrad)"/>

<!-- Shorts highlight -->
<path d="M 148 472 C 138 488 134 512 136 538
         C 155 528 200 522 260 522
         C 320 522 365 528 384 538
         C 386 512 382 488 372 472
         C 348 480 308 486 260 486
         C 212 486 172 480 148 472 Z"
  fill="#323258" opacity="0.5"/>

<!-- Belt line -->
<path d="M 140 466 C 168 476 212 482 260 482 C 308 482 352 476 380 466"
  stroke="#484868" stroke-width="3" fill="none"/>

<!-- White ribbon bow on hip left -->
<path d="M 144 498 C 132 490 122 492 120 502 C 118 512 126 520 138 520 Z" fill="white"/>
<path d="M 144 498 C 132 506 122 504 120 502 C 118 510 126 522 138 522 Z" fill="#E8E8E8"/>
<ellipse cx="145" cy="510" rx="7" ry="8" fill="white"/>
<path d="M 145 498 C 156 490 166 492 168 502 C 170 512 162 520 150 520 Z" fill="white"/>
<path d="M 145 498 C 156 506 166 504 168 502 C 170 510 162 522 150 522 Z" fill="#E8E8E8"/>

<!-- ═══════ LEGS ═══════ -->
<!-- Left leg -->
<path d="M 145 592
         C 138 615 135 645 137 672
         C 139 694 146 712 155 722
         C 165 730 180 732 192 728
         C 196 718 198 700 198 678
         C 198 655 196 628 192 605
         C 180 598 162 594 145 592 Z"
  fill="url(#skinBody)"/>
<!-- Right leg -->
<path d="M 375 592
         C 382 615 385 645 383 672
         C 381 694 374 712 365 722
         C 355 730 340 732 328 728
         C 324 718 322 700 322 678
         C 322 655 324 628 328 605
         C 340 598 358 594 375 592 Z"
  fill="url(#skinBody)"/>

<!-- Leg gap / inner thigh -->
<path d="M 215 588 C 222 600 235 618 248 640 C 252 650 256 662 258 676 L 262 676 C 264 662 268 650 272 640 C 285 618 298 600 305 588 C 290 584 276 582 260 582 C 244 582 230 584 215 588 Z"
  fill="#7A4F2A" opacity="0.5"/>

<!-- Boots/shoes hint -->
<ellipse cx="170" cy="726" rx="30" ry="14" fill="#1A1A2E"/>
<ellipse cx="350" cy="726" rx="30" ry="14" fill="#1A1A2E"/>

<!-- ═══════ HEAD ═══════ -->
<!-- Head base -->
<ellipse cx="260" cy="168" rx="96" ry="108" fill="url(#skinFace)"/>
<!-- Jaw refinement -->
<path d="M 174 185
         C 170 218 172 252 182 272
         C 195 292 226 306 260 308
         C 294 308 325 294 338 274
         C 348 254 350 220 346 187
         C 338 210 330 232 318 248
         C 302 268 284 280 260 282
         C 236 282 218 270 202 250
         C 190 234 182 212 174 185 Z"
  fill="url(#skinFace)"/>

<!-- Ear left -->
<ellipse cx="166" cy="180" rx="20" ry="25" fill="#A07040"/>
<ellipse cx="168" cy="180" rx="13" ry="18" fill="#8A5828"/>
<!-- Ear right -->
<ellipse cx="354" cy="180" rx="20" ry="25" fill="#A07040"/>
<ellipse cx="352" cy="180" rx="13" ry="18" fill="#8A5828"/>

<!-- ═══════ EYES ═══════ -->
<!-- === LEFT EYE === -->
<!-- Eye white -->
<ellipse cx="196" cy="162" rx="32" ry="25" fill="white"/>
<!-- Eyelid shadow top -->
<path d="M 164 152 C 178 138 214 138 228 152" fill="#C08060" opacity="0.25"/>
<!-- Iris -->
<ellipse cx="196" cy="163" rx="20" ry="21" fill="url(#irisL)" clip-path="url(#eyeClipL)"/>
<!-- Limbal ring -->
<ellipse cx="196" cy="163" rx="20" ry="21" fill="none" stroke="#0A2050" stroke-width="2" clip-path="url(#eyeClipL)"/>
<!-- Pupil -->
<ellipse cx="196" cy="165" rx="10" ry="11" fill="#040C28" clip-path="url(#eyeClipL)"/>
<!-- Main shine -->
<ellipse cx="205" cy="154" rx="6" ry="6" fill="white" opacity="0.95" clip-path="url(#eyeClipL)"/>
<!-- Secondary shine -->
<ellipse cx="187" cy="170" rx="4" ry="4" fill="white" opacity="0.65" clip-path="url(#eyeClipL)"/>
<!-- Tiny sparkle dot -->
<ellipse cx="200" cy="158" rx="2" ry="2" fill="white" opacity="0.5" clip-path="url(#eyeClipL)"/>
<!-- Top eyelid line -->
<path d="M 164 152 C 180 140 212 140 228 152" stroke="#1E0E08" stroke-width="3.5" fill="none" stroke-linecap="round"/>
<!-- Lashes left top -->
<line x1="164" y1="152" x2="157" y2="141" stroke="#1E0E08" stroke-width="2.8" stroke-linecap="round"/>
<line x1="172" y1="145" x2="167" y2="133" stroke="#1E0E08" stroke-width="2.4" stroke-linecap="round"/>
<line x1="182" y1="140" x2="179" y2="127" stroke="#1E0E08" stroke-width="2.2" stroke-linecap="round"/>
<line x1="196" y1="138" x2="195" y2="124" stroke="#1E0E08" stroke-width="2.2" stroke-linecap="round"/>
<line x1="210" y1="140" x2="212" y2="126" stroke="#1E0E08" stroke-width="2.2" stroke-linecap="round"/>
<line x1="220" y1="145" x2="225" y2="133" stroke="#1E0E08" stroke-width="2.4" stroke-linecap="round"/>
<line x1="228" y1="152" x2="235" y2="142" stroke="#1E0E08" stroke-width="2.8" stroke-linecap="round"/>
<!-- Bottom lash line -->
<path d="M 165 174 C 182 185 210 185 227 174" stroke="#5A3018" stroke-width="1.5" fill="none" opacity="0.6"/>

<!-- === RIGHT EYE === -->
<!-- Eye white -->
<ellipse cx="324" cy="162" rx="32" ry="25" fill="white"/>
<!-- Eyelid shadow top -->
<path d="M 292 152 C 306 138 342 138 356 152" fill="#C08060" opacity="0.25"/>
<!-- Iris -->
<ellipse cx="324" cy="163" rx="20" ry="21" fill="url(#irisR)" clip-path="url(#eyeClipR)"/>
<!-- Limbal ring -->
<ellipse cx="324" cy="163" rx="20" ry="21" fill="none" stroke="#0A2050" stroke-width="2" clip-path="url(#eyeClipR)"/>
<!-- Pupil -->
<ellipse cx="324" cy="165" rx="10" ry="11" fill="#040C28" clip-path="url(#eyeClipR)"/>
<!-- Main shine -->
<ellipse cx="333" cy="154" rx="6" ry="6" fill="white" opacity="0.95" clip-path="url(#eyeClipR)"/>
<!-- Secondary shine -->
<ellipse cx="315" cy="170" rx="4" ry="4" fill="white" opacity="0.65" clip-path="url(#eyeClipR)"/>
<!-- Tiny sparkle dot -->
<ellipse cx="328" cy="158" rx="2" ry="2" fill="white" opacity="0.5" clip-path="url(#eyeClipR)"/>
<!-- Top eyelid line -->
<path d="M 292 152 C 308 140 340 140 356 152" stroke="#1E0E08" stroke-width="3.5" fill="none" stroke-linecap="round"/>
<!-- Lashes right top -->
<line x1="292" y1="152" x2="285" y2="141" stroke="#1E0E08" stroke-width="2.8" stroke-linecap="round"/>
<line x1="300" y1="145" x2="295" y2="133" stroke="#1E0E08" stroke-width="2.4" stroke-linecap="round"/>
<line x1="310" y1="140" x2="307" y2="127" stroke="#1E0E08" stroke-width="2.2" stroke-linecap="round"/>
<line x1="324" y1="138" x2="324" y2="124" stroke="#1E0E08" stroke-width="2.2" stroke-linecap="round"/>
<line x1="338" y1="140" x2="341" y2="126" stroke="#1E0E08" stroke-width="2.2" stroke-linecap="round"/>
<line x1="348" y1="145" x2="353" y2="133" stroke="#1E0E08" stroke-width="2.4" stroke-linecap="round"/>
<line x1="356" y1="152" x2="363" y2="142" stroke="#1E0E08" stroke-width="2.8" stroke-linecap="round"/>
<!-- Bottom lash line right -->
<path d="M 293" y1="174" x2="310" y2="185" stroke="#5A3018" stroke-width="0"/>
<path d="M 293 174 C 310 185 338 185 355 174" stroke="#5A3018" stroke-width="1.5" fill="none" opacity="0.6"/>

<!-- ═══════ EYEBROWS ═══════ -->
<!-- Left eyebrow - slightly arched, natural -->
<path d="M 164 128 C 180 118 205 116 228 124" stroke="#2A1810" stroke-width="5" fill="none" stroke-linecap="round"/>
<path d="M 164 128 C 180 118 205 116 228 124" stroke="#4A3020" stroke-width="2.5" fill="none" stroke-linecap="round" opacity="0.5"/>
<!-- Right eyebrow -->
<path d="M 292 124 C 315 116 340 118 356 128" stroke="#2A1810" stroke-width="5" fill="none" stroke-linecap="round"/>
<path d="M 292 124 C 315 116 340 118 356 128" stroke="#4A3020" stroke-width="2.5" fill="none" stroke-linecap="round" opacity="0.5"/>

<!-- ═══════ NOSE ═══════ -->
<!-- Subtle anime nose - just a soft shadow -->
<path d="M 252 206 C 248 212 248 220 254 224 C 258 220 262 214 258 206" fill="#8A5030" opacity="0.4"/>
<!-- Nose tip highlight -->
<ellipse cx="260" cy="222" rx="6" ry="3" fill="#D0A068" opacity="0.3"/>

<!-- ═══════ MOUTH ═══════ -->
<!-- Bright happy smile -->
<path d="M 228 244 C 242 258 278 258 292 244" stroke="#B8604A" stroke-width="2.8" fill="none" stroke-linecap="round"/>
<!-- Teeth -->
<path d="M 233 248 C 246 256 274 256 287 248 C 278 254 242 254 233 248 Z" fill="white" opacity="0.92"/>
<!-- Upper lip -->
<path d="M 228 244 C 238 239 252 237 260 238 C 268 237 282 239 292 244 C 282 241 242 241 228 244 Z" fill="#D07060" opacity="0.8"/>
<!-- Lower lip shine -->
<ellipse cx="260" cy="254" rx="18" ry="5" fill="#E08878" opacity="0.35"/>

<!-- ═══════ BLUSH ═══════ -->
<ellipse cx="175" cy="208" rx="30" ry="14" fill="#FF8899" opacity="0.28"/>
<ellipse cx="345" cy="208" rx="30" ry="14" fill="#FF8899" opacity="0.28"/>
<!-- Tiny freckle dots (optional cute touch) -->
<circle cx="178" cy="206" r="2" fill="#D08060" opacity="0.3"/>
<circle cx="185" cy="212" r="1.5" fill="#D08060" opacity="0.25"/>
<circle cx="342" cy="206" r="2" fill="#D08060" opacity="0.3"/>
<circle cx="335" cy="212" r="1.5" fill="#D08060" opacity="0.25"/>

<!-- ═══════ FRONT HAIR ═══════ -->
<!-- Main crown mass -->
<path d="M 175 105
         C 180 72 205 50 260 48
         C 315 50 340 72 345 105
         C 336 82 322 66 302 58
         C 282 50 260 48 238 50
         C 218 52 200 64 188 80
         C 182 90 178 98 175 105 Z"
  fill="url(#hairMain)"/>

<!-- Side hair left (frames the face) -->
<path d="M 175 105
         C 158 128 148 158 150 192
         C 152 218 160 240 168 258
         C 172 238 172 215 174 192
         C 176 170 176 148 178 125
         Z"
  fill="#E8E8F8"/>
<path d="M 150 192
         C 148 222 155 252 164 275
         C 160 260 156 238 154 215
         C 152 200 150 196 150 192 Z"
  fill="#D0D0E8"/>

<!-- Side hair right -->
<path d="M 345 105
         C 362 128 372 158 370 192
         C 368 218 360 240 352 258
         C 348 238 348 215 346 192
         C 344 170 344 148 342 125
         Z"
  fill="#E8E8F8"/>

<!-- Front bangs -->
<!-- Bang 1 - center left -->
<path d="M 222 50
         C 215 65 210 88 214 115
         C 218 105 222 90 226 75
         C 226 65 225 56 222 50 Z"
  fill="white"/>
<!-- Bang 2 - center -->
<path d="M 252 48
         C 250 68 250 90 252 112
         C 254 90 254 68 252 48 Z"
  fill="#F5F5FF"/>
<!-- Bang 3 - center right -->
<path d="M 298 50
         C 305 65 310 88 306 115
         C 302 105 298 90 294 75
         C 294 65 295 56 298 50 Z"
  fill="white"/>

<!-- Bang 4 - far left side -->
<path d="M 185 75
         C 176 90 168 115 170 145
         C 175 132 180 115 182 98
         C 184 88 185 80 185 75 Z"
  fill="#EDEDFD"/>

<!-- Bang 5 - far right -->
<path d="M 335 75
         C 344 90 352 115 350 145
         C 345 132 340 115 338 98
         C 336 88 335 80 335 75 Z"
  fill="#EDEDFD"/>

<!-- Ahoge (cute hair spike on top) -->
<path d="M 255 48
         C 258 35 264 20 260 6
         C 257 18 254 32 252 48
         C 253 48 254 48 255 48 Z"
  fill="white"/>
<path d="M 252 48
         C 248 35 244 20 246 8
         C 248 20 250 34 252 48 Z"
  fill="#E8E8F8"/>

<!-- Hair shine highlights (gloss) -->
<path d="M 208 54 C 224 48 244 46 254 48" stroke="white" stroke-width="4" fill="none" opacity="0.7" stroke-linecap="round" filter="url(#hairShine)"/>
<path d="M 266 48 C 276 46 296 48 312 54" stroke="white" stroke-width="4" fill="none" opacity="0.7" stroke-linecap="round" filter="url(#hairShine)"/>
<path d="M 188 88 C 196 78 208 72 222 68" stroke="white" stroke-width="3" fill="none" opacity="0.55" stroke-linecap="round"/>
<path d="M 332 88 C 324 78 312 72 298 68" stroke="white" stroke-width="3" fill="none" opacity="0.55" stroke-linecap="round"/>

<!-- ═══════ ACCESSORIES ═══════ -->
<!-- Hair clip / small star on left side -->
<path d="M 162 158 L 166 148 L 170 158 L 180 158 L 172 165 L 175 175 L 166 169 L 157 175 L 160 165 L 152 158 Z"
  fill="#FFD700" opacity="0.85" transform="scale(0.7) translate(68 62)"/>

<!-- Gold bracelets on right wrist -->
<path d="M 438 358 C 448 354 458 352 462 356 C 466 360 462 368 452 372 C 442 376 432 374 428 370 C 424 366 428 362 438 358 Z"
  fill="#D4AF37" opacity="0.9"/>
<path d="M 435 368 C 445 364 455 362 459 366 C 463 370 459 378 449 382 C 439 386 429 384 425 380 C 421 376 425 372 435 368 Z"
  fill="#B8962A" opacity="0.8"/>

<!-- Choker necklace -->
<path d="M 232 278 C 244 285 276 285 288 278" stroke="#1A1A38" stroke-width="8" fill="none" stroke-linecap="round"/>
<path d="M 232 278 C 244 285 276 285 288 278" stroke="#4A4A88" stroke-width="4" fill="none" stroke-linecap="round"/>
<ellipse cx="260" cy="282" rx="5" ry="5" fill="#8888CC"/>
<ellipse cx="260" cy="282" rx="3" ry="3" fill="#AAAAFF"/>

<!-- ═══════ FACE LIGHTING ═══════ -->
<!-- Subtle rim light on face right side -->
<path d="M 340 150 C 348 170 348 195 340 215 C 346 196 347 172 340 150 Z"
  fill="#D0A060" opacity="0.15"/>
<!-- Forehead highlight -->
<ellipse cx="248" cy="115" rx="35" ry="20" fill="white" opacity="0.06"/>

<!-- ═══════ SPARKLE DECORATION ═══════ -->
<!-- Small sparkles around character -->
<g filter="url(#glow)" opacity="0.7">
  <path d="M 82 180 L 86 170 L 90 180 L 100 184 L 90 188 L 86 198 L 82 188 L 72 184 Z" fill="#A8DFFF"/>
  <path d="M 430 120 L 433 112 L 436 120 L 444 123 L 436 126 L 433 134 L 430 126 L 422 123 Z" fill="#FFD700"/>
  <path d="M 68 350 L 71 342 L 74 350 L 82 353 L 74 356 L 71 364 L 68 356 L 60 353 Z" fill="#FF88AA"/>
  <path d="M 448 300 L 451 293 L 454 300 L 461 303 L 454 306 L 451 313 L 448 306 L 441 303 Z" fill="#A8DFFF"/>
  <circle cx="98" cy="420" r="4" fill="#FFD700"/>
  <circle cx="422" cy="460" r="3" fill="#A8DFFF"/>
  <circle cx="76" cy="265" r="3" fill="#FF88AA"/>
</g>

<!-- Subtitle text -->
<text x="260" y="760" text-anchor="middle" font-family="Georgia, serif" font-size="18" fill="#8888CC" opacity="0.7">✦ Pixel Dream ✦</text>
</svg>
